<svg height="512" viewBox="0 0 64 64" width="512" xmlns="http://www.w3.org/2000/svg"><path d="m46 3 4 16h-36l4-16h4v10h20v-10z" fill="#bddbff"/><path d="m50 25-1.95 35.06a1 1 0 0 1 -1 .94h-30.1a1 1 0 0 1 -1-.94l-1.95-35.06zm-6 30v-24h-4v24zm-10 0v-24h-4v24zm-10 0v-24h-4v24z" fill="#bddbff"/><g fill="#3d9ae2"><path d="m52 18h-1.219l-3.811-15.243a1 1 0 0 0 -.97-.757h-28a1 1 0 0 0 -.97.757l-3.811 15.243h-1.219a2 2 0 0 0 -2 2v4a2 2 0 0 0 2 2h1.054l1.895 34.111a2 2 0 0 0 2 1.889h30.105a2 2 0 0 0 2-1.889l1.892-34.111h1.054a2 2 0 0 0 2-2v-4a2 2 0 0 0 -2-2zm-29-14h18v8h-18zm-4.219 0h2.219v9a1 1 0 0 0 1 1h20a1 1 0 0 0 1-1v-9h2.219l3.5 14h-33.438zm28.273 56h-30.108l-1.889-34h33.886zm4.946-36h-40v-4h40z"/><path d="m30 56h4a1 1 0 0 0 1-1v-24a1 1 0 0 0 -1-1h-4a1 1 0 0 0 -1 1v24a1 1 0 0 0 1 1zm1-24h2v22h-2z"/><path d="m40 56h4a1 1 0 0 0 1-1v-24a1 1 0 0 0 -1-1h-4a1 1 0 0 0 -1 1v24a1 1 0 0 0 1 1zm1-24h2v22h-2z"/><path d="m20 56h4a1 1 0 0 0 1-1v-24a1 1 0 0 0 -1-1h-4a1 1 0 0 0 -1 1v24a1 1 0 0 0 1 1zm1-24h2v22h-2z"/></g></svg>