<svg height="512pt" viewBox="-2 0 512 512" width="512pt" xmlns="http://www.w3.org/2000/svg"><path d="m31.984375 32v448h312v24h-336v-472zm0 0" fill="#d7e9ff"/><path d="m367.984375 56h-48v-48zm0 0" fill="#fff"/><path d="m495.902344 144.078125c6.3125 6.242187 6.3125 16.410156 0 22.640625l-5.605469 5.679688-22.640625-22.636719 5.6875-5.683594c6.230469-6.238281 16.3125-6.238281 22.558594 0zm0 0" fill="#94c1ff"/><path d="m490.296875 172.398438-63.199219 63.121093-22.625-22.558593 63.183594-63.199219zm0 0" fill="#94c1ff"/><path d="m333.265625 329.359375-8 8-31.609375 8.960937 8.96875-31.601562 8-8zm0 0" fill="#d7e9ff"/><path d="m427.097656 235.519531-59.113281 59.121094-34.71875 34.71875-22.640625-22.640625 57.359375-57.359375 36.488281-36.398437zm0 0" fill="#94c1ff"/><path d="m293.65625 346.320312 31.609375-8.960937 42.71875-42.71875v185.359375h-336v-472h288v48h48v193.359375l-65.359375 65.359375zm0 0" fill="#fff"/><g fill="#116fff"><path d="m288 360c-2.046875 0-4.097656-.785156-5.65625-2.34375-3.128906-3.128906-3.128906-8.183594 0-11.3125l5.65625-5.65625c3.128906-3.128906 8.183594-3.128906 11.3125 0s3.128906 8.183594 0 11.3125l-5.65625 5.65625c-1.558594 1.558594-3.609375 2.34375-5.65625 2.34375zm0 0"/><path d="m293.664062 354.34375c-.726562 0-1.464843-.097656-2.191406-.304688-4.25-1.207031-6.71875-5.632812-5.503906-9.878906l8.984375-31.59375c1.199219-4.246094 5.613281-6.742187 9.878906-5.503906 4.246094 1.210938 6.71875 5.632812 5.503907 9.882812l-8.984376 31.589844c-1 3.511719-4.207031 5.808594-7.6875 5.808594zm0 0"/><path d="m293.648438 354.34375c-3.488282 0-6.6875-2.296875-7.6875-5.816406-1.199219-4.253906 1.253906-8.679688 5.503906-9.878906l31.605468-8.96875c4.257813-1.230469 8.671876 1.257812 9.882813 5.503906 1.199219 4.257812-1.257813 8.679687-5.503906 9.878906l-31.609375 8.96875c-.726563.214844-1.464844.3125-2.191406.3125zm0 0"/><path d="m333.265625 337.375c-2.050781 0-4.097656-.78125-5.65625-2.34375l-22.625-22.625c-3.128906-3.125-3.128906-8.183594 0-11.308594 3.128906-3.128906 8.183594-3.128906 11.3125 0l22.625 22.621094c3.125 3.128906 3.125 8.183594 0 11.3125-1.5625 1.5625-3.609375 2.34375-5.65625 2.34375zm0 0"/><path d="m427.078125 243.550781c-2.046875 0-4.09375-.78125-5.652344-2.34375l-22.625-22.632812c-3.128906-3.125-3.128906-8.183594 0-11.308594 3.128907-3.128906 8.183594-3.128906 11.3125 0l22.621094 22.628906c3.128906 3.128907 3.128906 8.183594 0 11.3125-1.566406 1.570313-3.605469 2.34375-5.65625 2.34375zm0 0"/><path d="m302.640625 322.753906c-2.046875 0-4.097656-.785156-5.65625-2.347656-3.128906-3.125-3.128906-8.183594 0-11.308594l170.671875-170.683594c3.128906-3.125 8.183594-3.125 11.3125 0 3.128906 3.128907 3.128906 8.1875 0 11.3125l-170.671875 170.679688c-1.5625 1.5625-3.609375 2.347656-5.65625 2.347656zm0 0"/><path d="m325.265625 345.375c-2.050781 0-4.097656-.78125-5.65625-2.34375-3.128906-3.128906-3.128906-8.183594 0-11.3125l170.671875-170.671875c3.125-3.125 8.183594-3.125 11.3125 0 3.125 3.128906 3.125 8.183594 0 11.3125l-170.671875 170.671875c-1.5625 1.5625-3.609375 2.34375-5.65625 2.34375zm0 0"/><path d="m495.9375 174.703125c-2.050781 0-4.097656-.78125-5.65625-2.34375-3.128906-3.128906-3.128906-8.183594 0-11.3125 3.117188-3.125 3.117188-8.191406 0-11.320313-3.113281-3.109374-8.203125-3.117187-11.3125.007813-3.128906 3.113281-8.191406 3.121094-11.320312-.007813-3.121094-3.132812-3.121094-8.191406.007812-11.320312 9.359375-9.328125 24.574219-9.328125 33.9375 0 9.359375 9.371094 9.359375 24.59375 0 33.953125-1.5625 1.5625-3.609375 2.34375-5.65625 2.34375zm0 0"/><path d="m495.9375 208.640625c-2.050781 0-4.097656-.785156-5.65625-2.34375-3.128906-3.128906-3.128906-8.183594 0-11.3125 1.503906-1.511719 2.34375-3.519531 2.34375-5.65625 0-2.144531-.832031-4.144531-2.34375-5.648437-3.128906-3.128907-3.128906-8.183594-.007812-11.320313 3.125-3.128906 8.191406-3.121094 11.320312-.007813 4.527344 4.527344 7.03125 10.558594 7.03125 16.976563 0 6.40625-2.503906 12.441406-7.03125 16.96875-1.5625 1.558594-3.609375 2.34375-5.65625 2.34375zm0 0"/><path d="m441.71875 262.863281c-2.046875 0-4.09375-.785156-5.65625-2.34375-3.125-3.128906-3.125-8.183593 0-11.3125l54.21875-54.222656c3.125-3.128906 8.183594-3.128906 11.3125 0 3.125 3.128906 3.125 8.183594 0 11.3125l-54.21875 54.222656c-1.558594 1.570313-3.605469 2.34375-5.65625 2.34375zm0 0"/><path d="m495.9375 186.015625c-2.050781 0-4.097656-.785156-5.65625-2.34375l-28.28125-28.289063c-3.128906-3.125-3.128906-8.183593 0-11.3125 3.128906-3.125 8.183594-3.125 11.3125 0l28.28125 28.289063c3.125 3.128906 3.125 8.183594 0 11.3125-1.5625 1.558594-3.609375 2.34375-5.65625 2.34375zm0 0"/><path d="m368 488h-336c-4.425781 0-8-3.574219-8-8v-472c0-4.425781 3.574219-8 8-8h288c2.128906 0 4.160156.839844 5.65625 2.34375l48 48c1.496094 1.496094 2.34375 3.527344 2.34375 5.65625v193.382812c0 4.425782-3.574219 8-8 8s-8-3.574218-8-8v-190.070312l-43.3125-43.3125h-276.6875v456h320v-177.367188c0-4.425781 3.574219-8 8-8s8 3.574219 8 8v185.367188c0 4.425781-3.574219 8-8 8zm0 0"/><path d="m320 64c-4.425781 0-8-3.574219-8-8v-48c0-4.425781 3.574219-8 8-8s8 3.574219 8 8v48c0 4.425781-3.574219 8-8 8zm0 0"/><path d="m368 64h-48c-4.425781 0-8-3.574219-8-8s3.574219-8 8-8h48c4.425781 0 8 3.574219 8 8s-3.574219 8-8 8zm0 0"/><path d="m304 168h-208c-4.425781 0-8-3.574219-8-8s3.574219-8 8-8h208c4.425781 0 8 3.574219 8 8s-3.574219 8-8 8zm0 0"/><path d="m304 216h-208c-4.425781 0-8-3.574219-8-8s3.574219-8 8-8h208c4.425781 0 8 3.574219 8 8s-3.574219 8-8 8zm0 0"/><path d="m304 264h-208c-4.425781 0-8-3.574219-8-8s3.574219-8 8-8h208c4.425781 0 8 3.574219 8 8s-3.574219 8-8 8zm0 0"/><path d="m200 312h-104c-4.425781 0-8-3.574219-8-8s3.574219-8 8-8h104c4.425781 0 8 3.574219 8 8s-3.574219 8-8 8zm0 0"/><path d="m304 400h-56c-4.425781 0-8-3.574219-8-8s3.574219-8 8-8h56c4.425781 0 8 3.574219 8 8s-3.574219 8-8 8zm0 0"/><path d="m288 416c-4.425781 0-8-3.574219-8-8v-32c0-4.425781 3.574219-8 8-8s8 3.574219 8 8v32c0 4.425781-3.574219 8-8 8zm0 0"/><path d="m288.007812 416c-2.441406 0-4.832031-1.105469-6.40625-3.199219l-24-32c-2.65625-3.527343-1.9375-8.542969 1.597657-11.191406 3.519531-2.65625 8.535156-1.945313 11.191406 1.597656l24 32c2.65625 3.527344 1.9375 8.546875-1.597656 11.191407-1.433594 1.082031-3.113281 1.601562-4.785157 1.601562zm0 0"/><path d="m264 416c-4.425781 0-8-3.574219-8-8v-32c0-4.425781 3.574219-8 8-8s8 3.574219 8 8v32c0 4.425781-3.574219 8-8 8zm0 0"/><path d="m344 512c-4.425781 0-8-3.574219-8-8v-24c0-4.425781 3.574219-8 8-8s8 3.574219 8 8v24c0 4.425781-3.574219 8-8 8zm0 0"/><path d="m344 512h-336c-4.425781 0-8-3.574219-8-8s3.574219-8 8-8h336c4.425781 0 8 3.574219 8 8s-3.574219 8-8 8zm0 0"/><path d="m8 512c-4.425781 0-8-3.574219-8-8v-472c0-4.425781 3.574219-8 8-8s8 3.574219 8 8v472c0 4.425781-3.574219 8-8 8zm0 0"/><path d="m32 40h-24c-4.425781 0-8-3.574219-8-8s3.574219-8 8-8h24c4.425781 0 8 3.574219 8 8s-3.574219 8-8 8zm0 0"/></g></svg>