<svg height="503pt" viewBox="0 -6 503.77112 503" width="503pt" xmlns="http://www.w3.org/2000/svg"><path d="m495.765625 449.996094v32h-176v-32zm0 0" fill="#94c1ff"/><path d="m455.765625 277.996094c0-11.039063 8.953125-20 20-20 11.039063 0 20 8.960937 20 20v132l-16 40h-144l-32-56v-120c17.679687 0 32 14.320312 32 32v-140c0-11.039063 8.953125-20 20-20 11.039063 0 20 8.960937 20 20v96c0-11.039063 8.953125-20 20-20 11.039063 0 20 8.960937 20 20v8c0-11.039063 8.953125-20 20-20 11.039063 0 20 8.960937 20 20zm0 0" fill="#d7e9ff"/><path d="m159.925781 10.15625c57.441407 0 104 46.558594 104 104 0 57.359375-46.558593 104-104 104-57.441406 0-104-46.640625-104-104 0-57.441406 46.558594-104 104-104zm0 0" fill="#94c1ff"/><path d="m159.925781 10.15625c-4.070312 0-8.0625.296875-12.015625.75 51.777344 5.960938 91.992188 49.882812 91.992188 103.25 0 53.296875-40.214844 97.28125-91.992188 103.246094 3.953125.457031 7.945313.753906 12.015625.753906 57.441407 0 104-46.640625 104-104 0-57.441406-46.566406-104-104-104zm0 0" fill="#5c9eff"/><g fill="#116fff"><path d="m352.015625 483.753906c-4.425781 0-8.042969-3.574218-8.042969-8 0-4.421875 3.539063-8 7.953125-8h.089844c4.414063 0 8 3.578125 8 8 0 4.425782-3.59375 8-8 8zm0 0"/><path d="m375.765625 175.753906c-4.421875 0-8-3.574218-8-8 0-6.613281-5.382813-12-12-12s-12 5.386719-12 12c0 4.425782-3.574219 8-8 8-4.421875 0-8-3.574218-8-8 0-15.4375 12.558594-28 28-28s28 12.5625 28 28c0 4.425782-3.574219 8-8 8zm0 0"/><path d="m415.765625 271.746094c-4.421875 0-8-3.574219-8-8 0-6.605469-5.382813-11.992188-12-11.992188s-12 5.386719-12 11.992188c0 4.425781-3.574219 8-8 8-4.421875 0-8-3.574219-8-8 0-15.4375 12.558594-27.992188 28-27.992188s28 12.554688 28 27.992188c0 4.425781-3.574219 8-8 8zm0 0"/><path d="m455.765625 279.746094c-4.421875 0-8-3.574219-8-8 0-6.605469-5.382813-11.992188-12-11.992188s-12 5.386719-12 11.992188c0 4.425781-3.574219 8-8 8-4.421875 0-8-3.574219-8-8 0-15.4375 12.558594-27.992188 28-27.992188s28 12.554688 28 27.992188c0 4.425781-3.574219 8-8 8zm0 0"/><path d="m495.75 287.746094c-4.425781 0-8-3.574219-8-8 0-6.605469-5.375-11.992188-11.984375-11.992188-6.617187 0-12 5.386719-12 11.992188 0 4.425781-3.574219 8-8 8-4.421875 0-8-3.574219-8-8 0-15.4375 12.558594-27.992188 28-27.992188 15.433594 0 27.984375 12.554688 27.984375 27.992188 0 4.425781-3.574219 8-8 8zm0 0"/><path d="m375.765625 291.753906c-4.421875 0-8-3.574218-8-8v-116c0-4.421875 3.578125-8 8-8 4.425781 0 8 3.578125 8 8v116c0 4.425782-3.574219 8-8 8zm0 0"/><path d="m335.765625 339.753906c-4.421875 0-8-3.574218-8-8v-164c0-4.421875 3.578125-8 8-8 4.425781 0 8 3.578125 8 8v164c0 4.425782-3.574219 8-8 8zm0 0"/><path d="m415.765625 291.761719c-4.421875 0-8-3.574219-8-8v-20.007813c0-4.421875 3.578125-8 8-8 4.425781 0 8 3.578125 8 8v20.007813c0 4.425781-3.574219 8-8 8zm0 0"/><path d="m455.765625 291.753906c-4.421875 0-8-3.574218-8-8v-12.007812c0-4.421875 3.578125-8 8-8 4.425781 0 8 3.578125 8 8v12.007812c0 4.425782-3.574219 8-8 8zm0 0"/><path d="m495.765625 419.753906c-4.421875 0-8-3.574218-8-8v-132.007812c0-4.421875 3.578125-8 8-8 4.425781 0 8 3.578125 8 8v132.007812c0 4.425782-3.574219 8-8 8zm0 0"/><path d="m335.765625 315.753906c-4.421875 0-8-3.574218-8-8 0-13.230468-10.769531-24-24-24-4.421875 0-8-3.574218-8-8 0-4.421875 3.578125-8 8-8 22.054687 0 40 17.945313 40 40 0 4.425782-3.574219 8-8 8zm0 0"/><path d="m303.765625 403.753906c-4.421875 0-8-3.574218-8-8v-120c0-4.421875 3.578125-8 8-8 4.425781 0 8 3.578125 8 8v120c0 4.425782-3.574219 8-8 8zm0 0"/><path d="m335.773438 459.753906c-2.785157 0-5.480469-1.445312-6.953126-4.03125l-32-56c-2.191406-3.832031-.855468-8.71875 2.976563-10.910156 3.832031-2.21875 8.722656-.855469 10.914063 2.976562l32 56c2.191406 3.832032.855468 8.71875-2.976563 10.910157-1.25.71875-2.617187 1.054687-3.960937 1.054687zm0 0"/><path d="m479.765625 459.753906c-.992187 0-2-.175781-2.96875-.566406-4.101563-1.640625-6.101563-6.296875-4.460937-10.398438l16-40c1.636718-4.113281 6.316406-6.105468 10.398437-4.464843 4.105469 1.640625 6.105469 6.296875 4.464844 10.398437l-16 40c-1.25 3.136719-4.257813 5.03125-7.433594 5.03125zm0 0"/><path d="m495.765625 491.753906c-4.421875 0-8-3.574218-8-8v-24h-160v24c0 4.425782-3.574219 8-8 8-4.421875 0-8-3.574218-8-8v-32c0-4.421875 3.578125-8 8-8h176c4.425781 0 8 3.578125 8 8v32c0 4.425782-3.574219 8-8 8zm0 0"/><path d="m69.421875 214.394531c-2.046875 0-4.097656-.78125-5.65625-2.34375-25.695313-25.6875-39.839844-59.839843-39.839844-96.167969 0-36.320312 14.152344-70.480468 39.839844-96.167968 3.128906-3.128906 8.183594-3.128906 11.3125 0s3.128906 8.183594 0 11.3125c-22.671875 22.671875-35.152344 52.808594-35.152344 84.855468 0 32.058594 12.488281 62.183594 35.160157 84.855469 3.128906 3.128907 3.128906 8.183594 0 11.3125-1.566407 1.5625-3.617188 2.34375-5.664063 2.34375zm0 0"/><path d="m250.4375 214.394531c-2.046875 0-4.09375-.78125-5.65625-2.34375-3.128906-3.128906-3.128906-8.183593 0-11.3125 46.785156-46.789062 46.785156-122.917969 0-169.710937-3.128906-3.128906-3.128906-8.183594 0-11.3125s8.183594-3.128906 11.3125 0c53.023438 53.023437 53.023438 139.3125 0 192.335937-1.558594 1.5625-3.609375 2.34375-5.65625 2.34375zm0 0"/><path d="m159.925781 227.882812c-61.761719 0-112-50.238281-112-112 0-61.757812 50.238281-112 112-112s112 50.242188 112 112c0 61.761719-50.246093 112-112 112zm0-208c-52.9375 0-96 43.066407-96 96 0 52.9375 43.0625 96 96 96s96-43.0625 96-96c0-52.933593-43.0625-96-96-96zm0 0"/><path d="m267.40625 231.355469c-2.046875 0-4.097656-.785157-5.65625-2.34375-3.128906-3.128907-3.128906-8.183594 0-11.3125 27.199219-27.199219 42.183594-63.359375 42.183594-101.824219s-14.984375-74.625-42.183594-101.832031c-3.128906-3.128907-3.128906-8.183594 0-11.3125 3.128906-3.125 8.183594-3.125 11.3125 0 30.222656 30.226562 46.871094 70.410156 46.871094 113.144531 0 42.738281-16.648438 82.90625-46.871094 113.136719-1.558594 1.566406-3.609375 2.34375-5.65625 2.34375zm0 0"/><path d="m52.4375 231.355469c-2.046875 0-4.09375-.785157-5.65625-2.34375-62.375-62.382813-62.375-163.878907 0-226.273438 3.128906-3.125 8.183594-3.125 11.3125 0 3.128906 3.128907 3.128906 8.183594 0 11.3125-56.136719 56.152344-56.136719 147.503907 0 203.648438 3.128906 3.128906 3.128906 8.183593 0 11.3125-1.558594 1.566406-3.609375 2.34375-5.65625 2.34375zm0 0"/><path d="m143.910156 155.882812c-2.046875 0-4.097656-.785156-5.65625-2.34375l-31.984375-31.984374c-3.128906-3.128907-3.128906-8.183594 0-11.3125 3.128907-3.125 8.183594-3.125 11.3125 0l31.984375 31.984374c3.128906 3.128907 3.128906 8.183594 0 11.3125-1.558594 1.558594-3.609375 2.34375-5.65625 2.34375zm0 0"/><path d="m143.910156 155.882812c-2.046875 0-4.097656-.785156-5.65625-2.34375-3.128906-3.128906-3.128906-8.183593 0-11.3125l64-64c3.128906-3.128906 8.183594-3.128906 11.3125 0 3.128906 3.128907 3.128906 8.183594 0 11.3125l-64 64c-1.558594 1.558594-3.609375 2.34375-5.65625 2.34375zm0 0"/></g></svg>