<svg id="icons" enable-background="new 0 0 64 64" height="512" viewBox="0 0 64 64" width="512" xmlns="http://www.w3.org/2000/svg"><g><g><g><path d="m50 14h12v12h-12z" fill="#94c1ff"/></g><g><path d="m38 50h12v12h-12z" fill="#94c1ff"/></g><g><path d="m14 2h12v12h-12z" fill="#94c1ff"/></g><g><path d="m2 14h12v12h-12z" fill="#94c1ff"/></g><g><path d="m26 14h12v12h-12z" fill="#94c1ff"/></g><g><path d="m14 26h12v12h-12z" fill="#94c1ff"/></g><g><path d="m14 50h12v12h-12z" fill="#94c1ff"/></g><g><path d="m2 38h12v12h-12z" fill="#94c1ff"/></g><g><path d="m50 38h12v12h-12z" fill="#94c1ff"/></g><g><path d="m38 38v12h-12v-12h3 6z" fill="#94c1ff"/></g><g><path d="m38 26h12v12h-12z" fill="#94c1ff"/></g><g><path d="m38 2h12v12h-12z" fill="#94c1ff"/></g></g><g><path d="m35 36v2h-6v-7.63l2-2.37 1 1 4 2-1 2h-2z" fill="#94c1ff"/></g><g><g><path d="m26 50h12v12h-12z" fill="#fff"/></g><g><g><path d="m50 50h12v12h-12z" fill="#fff"/></g><g><path d="m38 38h12v12h-12z" fill="#fff"/></g><g><path d="m38 14h12v12h-12z" fill="#fff"/></g><g><path d="m38 26v12h-3v-2l-2-3h2l1-2-4-2-1-1-2 2.37v7.63h-3v-12z" fill="#fff"/></g><g><path d="m14 14h12v12h-12z" fill="#fff"/></g><g><path d="m50 26h12v12h-12z" fill="#fff"/></g><g><path d="m2 26h12v12h-12z" fill="#fff"/></g><g><path d="m26 2h12v12h-12z" fill="#fff"/></g><g><path d="m2 2h12v12h-12z" fill="#fff"/></g><g><path d="m50 2h12v12h-12z" fill="#fff"/></g><g><path d="m14 38h12v12h-12z" fill="#fff"/></g><g><path d="m2 50h12v12h-12z" fill="#fff"/></g></g></g></g><g><g><g><path d="m14 15h-12c-.553 0-1-.447-1-1v-12c0-.553.447-1 1-1h12c.553 0 1 .447 1 1v12c0 .553-.447 1-1 1zm-11-2h10v-10h-10z" fill="#116fff"/></g><g><path d="m26 15h-12c-.553 0-1-.447-1-1v-12c0-.553.447-1 1-1h12c.553 0 1 .447 1 1v12c0 .553-.447 1-1 1zm-11-2h10v-10h-10z" fill="#116fff"/></g><g><path d="m38 15h-12c-.553 0-1-.447-1-1v-12c0-.553.447-1 1-1h12c.553 0 1 .447 1 1v12c0 .553-.447 1-1 1zm-11-2h10v-10h-10z" fill="#116fff"/></g><g><path d="m50 15h-12c-.553 0-1-.447-1-1v-12c0-.553.447-1 1-1h12c.553 0 1 .447 1 1v12c0 .553-.447 1-1 1zm-11-2h10v-10h-10z" fill="#116fff"/></g><g><path d="m62 15h-12c-.553 0-1-.447-1-1v-12c0-.553.447-1 1-1h12c.553 0 1 .447 1 1v12c0 .553-.447 1-1 1zm-11-2h10v-10h-10z" fill="#116fff"/></g><g><path d="m14 27h-12c-.553 0-1-.447-1-1v-12c0-.553.447-1 1-1h12c.553 0 1 .447 1 1v12c0 .553-.447 1-1 1zm-11-2h10v-10h-10z" fill="#116fff"/></g><g><path d="m26 27h-12c-.553 0-1-.447-1-1v-12c0-.553.447-1 1-1h12c.553 0 1 .447 1 1v12c0 .553-.447 1-1 1zm-11-2h10v-10h-10z" fill="#116fff"/></g><g><path d="m38 27h-12c-.553 0-1-.447-1-1v-12c0-.553.447-1 1-1h12c.553 0 1 .447 1 1v12c0 .553-.447 1-1 1zm-11-2h10v-10h-10z" fill="#116fff"/></g><g><path d="m50 27h-12c-.553 0-1-.447-1-1v-12c0-.553.447-1 1-1h12c.553 0 1 .447 1 1v12c0 .553-.447 1-1 1zm-11-2h10v-10h-10z" fill="#116fff"/></g><g><path d="m62 27h-12c-.553 0-1-.447-1-1v-12c0-.553.447-1 1-1h12c.553 0 1 .447 1 1v12c0 .553-.447 1-1 1zm-11-2h10v-10h-10z" fill="#116fff"/></g><g><path d="m14 39h-12c-.553 0-1-.447-1-1v-12c0-.553.447-1 1-1h12c.553 0 1 .447 1 1v12c0 .553-.447 1-1 1zm-11-2h10v-10h-10z" fill="#116fff"/></g><g><path d="m26 39h-12c-.553 0-1-.447-1-1v-12c0-.553.447-1 1-1h12c.553 0 1 .447 1 1v12c0 .553-.447 1-1 1zm-11-2h10v-10h-10z" fill="#116fff"/></g><g><path d="m38 39h-12c-.553 0-1-.447-1-1v-12c0-.553.447-1 1-1h12c.553 0 1 .447 1 1v12c0 .553-.447 1-1 1zm-11-2h10v-10h-10z" fill="#116fff"/></g><g><path d="m50 39h-12c-.553 0-1-.447-1-1v-12c0-.553.447-1 1-1h12c.553 0 1 .447 1 1v12c0 .553-.447 1-1 1zm-11-2h10v-10h-10z" fill="#116fff"/></g><g><path d="m62 39h-12c-.553 0-1-.447-1-1v-12c0-.553.447-1 1-1h12c.553 0 1 .447 1 1v12c0 .553-.447 1-1 1zm-11-2h10v-10h-10z" fill="#116fff"/></g><g><path d="m14 51h-12c-.553 0-1-.447-1-1v-12c0-.553.447-1 1-1h12c.553 0 1 .447 1 1v12c0 .553-.447 1-1 1zm-11-2h10v-10h-10z" fill="#116fff"/></g><g><path d="m26 51h-12c-.553 0-1-.447-1-1v-12c0-.553.447-1 1-1h12c.553 0 1 .447 1 1v12c0 .553-.447 1-1 1zm-11-2h10v-10h-10z" fill="#116fff"/></g><g><path d="m38 51h-12c-.553 0-1-.447-1-1v-12c0-.553.447-1 1-1h12c.553 0 1 .447 1 1v12c0 .553-.447 1-1 1zm-11-2h10v-10h-10z" fill="#116fff"/></g><g><path d="m50 51h-12c-.553 0-1-.447-1-1v-12c0-.553.447-1 1-1h12c.553 0 1 .447 1 1v12c0 .553-.447 1-1 1zm-11-2h10v-10h-10z" fill="#116fff"/></g><g><path d="m62 51h-12c-.553 0-1-.447-1-1v-12c0-.553.447-1 1-1h12c.553 0 1 .447 1 1v12c0 .553-.447 1-1 1zm-11-2h10v-10h-10z" fill="#116fff"/></g><g><path d="m14 63h-12c-.553 0-1-.447-1-1v-12c0-.553.447-1 1-1h12c.553 0 1 .447 1 1v12c0 .553-.447 1-1 1zm-11-2h10v-10h-10z" fill="#116fff"/></g><g><path d="m26 63h-12c-.553 0-1-.447-1-1v-12c0-.553.447-1 1-1h12c.553 0 1 .447 1 1v12c0 .553-.447 1-1 1zm-11-2h10v-10h-10z" fill="#116fff"/></g><g><path d="m38 63h-12c-.553 0-1-.447-1-1v-12c0-.553.447-1 1-1h12c.553 0 1 .447 1 1v12c0 .553-.447 1-1 1zm-11-2h10v-10h-10z" fill="#116fff"/></g><g><path d="m50 63h-12c-.553 0-1-.447-1-1v-12c0-.553.447-1 1-1h12c.553 0 1 .447 1 1v12c0 .553-.447 1-1 1zm-11-2h10v-10h-10z" fill="#116fff"/></g><g><path d="m62 63h-12c-.553 0-1-.447-1-1v-12c0-.553.447-1 1-1h12c.553 0 1 .447 1 1v12c0 .553-.447 1-1 1zm-11-2h10v-10h-10z" fill="#116fff"/></g></g><g><g><g><path d="m35.001 37c-.323 0-.641-.156-.833-.445l-1.999-3c-.307-.46-.182-1.081.277-1.387.46-.307 1.081-.183 1.387.277l1.999 3c.307.46.182 1.081-.277 1.387-.171.113-.364.168-.554.168z" fill="#116fff"/></g><g><path d="m35 34h-3c-.553 0-1-.447-1-1s.447-1 1-1h3c.553 0 1 .447 1 1s-.447 1-1 1z" fill="#116fff"/></g><g><path d="m34.999 34c-.15 0-.303-.034-.446-.105-.494-.247-.694-.849-.447-1.342l1.001-2c.247-.494.848-.692 1.342-.447.494.247.694.849.447 1.342l-1.001 2c-.176.35-.529.552-.896.552z" fill="#116fff"/></g><g><path d="m36 32c-.15 0-.303-.034-.446-.105l-4-2.001c-.494-.247-.694-.848-.447-1.342s.849-.692 1.342-.447l4 2.001c.494.247.694.848.447 1.342-.176.35-.529.552-.896.552z" fill="#116fff"/></g><g><path d="m32.001 29.999c-.256 0-.512-.098-.707-.293l-1-.999c-.391-.39-.391-1.023 0-1.414s1.023-.391 1.414 0l1 .999c.391.39.391 1.023 0 1.414-.195.195-.451.293-.707.293z" fill="#116fff"/></g><g><path d="m28.999 31.365c-.228 0-.457-.078-.645-.236-.422-.356-.475-.988-.118-1.409l2.001-2.365c.357-.422.987-.475 1.409-.118s.475.988.118 1.409l-2.001 2.365c-.198.234-.48.354-.764.354z" fill="#116fff"/></g><g><path d="m29 39c-.553 0-1-.447-1-1v-7.635c0-.553.447-1 1-1s1 .447 1 1v7.635c0 .553-.447 1-1 1z" fill="#116fff"/></g></g><g><path d="m35 39c-.553 0-1-.447-1-1v-2c0-.553.447-1 1-1s1 .447 1 1v2c0 .553-.447 1-1 1z" fill="#116fff"/></g></g><g><g><path d="m32.001 24c-.553 0-1-.447-1-1v-15c0-.553.447-1 1-1s1 .447 1 1v15c0 .553-.447 1-1 1z" fill="#116fff"/></g><g><path d="m44 9h-11.999c-.553 0-1-.447-1-1s.447-1 1-1h11.999c.553 0 1 .447 1 1s-.447 1-1 1z" fill="#116fff"/></g><g><path d="m41.999 11.001c-.256 0-.512-.098-.707-.293-.391-.391-.391-1.023 0-1.414l2.001-2.001c.391-.391 1.023-.391 1.414 0s.391 1.023 0 1.414l-2.001 2.001c-.195.195-.451.293-.707.293z" fill="#116fff"/></g><g><path d="m44 9c-.256 0-.512-.098-.707-.293l-2.001-2.001c-.391-.391-.391-1.023 0-1.414s1.023-.391 1.414 0l2.001 2.001c.391.391.391 1.023 0 1.414-.195.195-.451.293-.707.293z" fill="#116fff"/></g><g><g><path d="m32 9h-11.999c-.553 0-1-.447-1-1s.447-1 1-1h11.999c.553 0 1 .447 1 1s-.447 1-1 1z" fill="#116fff"/></g><g><path d="m20.001 9c-.256 0-.512-.098-.707-.293-.391-.391-.391-1.023 0-1.414l2.001-2.001c.391-.391 1.023-.391 1.414 0s.391 1.023 0 1.414l-2.001 2.001c-.195.195-.451.293-.707.293z" fill="#116fff"/></g><g><path d="m22.002 11.001c-.256 0-.512-.098-.707-.293l-2.001-2.001c-.391-.391-.391-1.023 0-1.414s1.023-.391 1.414 0l2.001 2.001c.391.391.391 1.023 0 1.414-.195.195-.451.293-.707.293z" fill="#116fff"/></g></g></g><g><g><path d="m32 57c-.553 0-1-.447-1-1v-15c0-.553.447-1 1-1s1 .447 1 1v15c0 .553-.447 1-1 1z" fill="#116fff"/></g><g><path d="m32 57h-11.999c-.553 0-1-.447-1-1s.447-1 1-1h11.999c.553 0 1 .447 1 1s-.447 1-1 1z" fill="#116fff"/></g><g><path d="m20.001 57c-.256 0-.512-.098-.707-.293-.391-.391-.391-1.023 0-1.414l2.001-2.001c.391-.391 1.023-.391 1.414 0s.391 1.023 0 1.414l-2.001 2.001c-.195.195-.451.293-.707.293z" fill="#116fff"/></g><g><path d="m22.002 59.001c-.256 0-.512-.098-.707-.293l-2.001-2.001c-.391-.391-.391-1.023 0-1.414s1.023-.391 1.414 0l2.001 2.001c.391.391.391 1.023 0 1.414-.195.195-.451.293-.707.293z" fill="#116fff"/></g><g><g><path d="m44 57h-11.999c-.553 0-1-.447-1-1s.447-1 1-1h11.999c.553 0 1 .447 1 1s-.447 1-1 1z" fill="#116fff"/></g><g><path d="m41.999 59.001c-.256 0-.512-.098-.707-.293-.391-.391-.391-1.023 0-1.414l2.001-2.001c.391-.391 1.023-.391 1.414 0s.391 1.023 0 1.414l-2.001 2.001c-.195.195-.451.293-.707.293z" fill="#116fff"/></g><g><path d="m44 57c-.256 0-.512-.098-.707-.293l-2.001-2.001c-.391-.391-.391-1.023 0-1.414s1.023-.391 1.414 0l2.001 2.001c.391.391.391 1.023 0 1.414-.195.195-.451.293-.707.293z" fill="#116fff"/></g></g></g><g><g><path d="m56 33h-15c-.553 0-1-.447-1-1s.447-1 1-1h15c.553 0 1 .447 1 1s-.447 1-1 1z" fill="#116fff"/></g><g><path d="m56 44.999c-.553 0-1-.447-1-1v-11.999c0-.553.447-1 1-1s1 .447 1 1v11.999c0 .553-.447 1-1 1z" fill="#116fff"/></g><g><path d="m56 44.999c-.256 0-.512-.098-.707-.293l-2.001-2.001c-.391-.391-.391-1.023 0-1.414s1.023-.391 1.414 0l2.001 2.001c.391.391.391 1.023 0 1.414-.195.195-.451.293-.707.293z" fill="#116fff"/></g><g><path d="m56 44.999c-.256 0-.512-.098-.707-.293-.391-.391-.391-1.023 0-1.414l2.001-2.001c.391-.391 1.023-.391 1.414 0s.391 1.023 0 1.414l-2.001 2.001c-.195.195-.451.293-.707.293z" fill="#116fff"/></g><g><g><path d="m56 32.999c-.553 0-1-.447-1-1v-11.999c0-.553.447-1 1-1s1 .447 1 1v11.999c0 .553-.447 1-1 1z" fill="#116fff"/></g><g><path d="m58.001 23.001c-.256 0-.512-.098-.707-.293l-2.001-2.001c-.391-.391-.391-1.023 0-1.414s1.023-.391 1.414 0l2.001 2.001c.391.391.391 1.023 0 1.414-.195.195-.451.293-.707.293z" fill="#116fff"/></g><g><path d="m53.999 23.001c-.256 0-.512-.098-.707-.293-.391-.391-.391-1.023 0-1.414l2.001-2.001c.391-.391 1.023-.391 1.414 0s.391 1.023 0 1.414l-2.001 2.001c-.195.195-.451.293-.707.293z" fill="#116fff"/></g></g></g><g><g><path d="m23.001 32.999h-15c-.553 0-1-.447-1-1s.447-1 1-1h15c.553 0 1 .447 1 1s-.447 1-1 1z" fill="#116fff"/></g><g><path d="m8.001 32.999c-.553 0-1-.447-1-1v-11.999c0-.553.447-1 1-1s1 .447 1 1v11.999c0 .553-.447 1-1 1z" fill="#116fff"/></g><g><path d="m10.002 23.001c-.256 0-.512-.098-.707-.293l-2.001-2.001c-.391-.391-.391-1.023 0-1.414s1.023-.391 1.414 0l2.001 2.001c.391.391.391 1.023 0 1.414-.195.195-.451.293-.707.293z" fill="#116fff"/></g><g><path d="m6 23.001c-.256 0-.512-.098-.707-.293-.391-.391-.391-1.023 0-1.414l2.001-2.001c.391-.391 1.023-.391 1.414 0s.391 1.023 0 1.414l-2.001 2.001c-.195.195-.451.293-.707.293z" fill="#116fff"/></g><g><g><path d="m8.001 44.999c-.553 0-1-.447-1-1v-11.999c0-.553.447-1 1-1s1 .447 1 1v11.999c0 .553-.447 1-1 1z" fill="#116fff"/></g><g><path d="m8.001 44.999c-.256 0-.512-.098-.707-.293l-2.001-2.001c-.391-.391-.391-1.023 0-1.414s1.023-.391 1.414 0l2.001 2.001c.391.391.391 1.023 0 1.414-.195.195-.451.293-.707.293z" fill="#116fff"/></g><g><path d="m8.001 44.999c-.256 0-.512-.098-.707-.293-.391-.391-.391-1.023 0-1.414l2.001-2.001c.391-.391 1.023-.391 1.414 0s.391 1.023 0 1.414l-2.001 2.001c-.195.195-.451.293-.707.293z" fill="#116fff"/></g></g></g></g></svg>