<svg id="icons" enable-background="new 0 0 64 64" height="512" viewBox="0 0 64 64" width="512" xmlns="http://www.w3.org/2000/svg"><path d="m55 6.5c1.649 0 3 1.34 3 3s-1.351 3-3 3c-1.66 0-3-1.34-3-3s1.34-3 3-3z" fill="#5c9eff"/><path d="m55 1.5c4.42 0 8 3.58 8 8 0 6.86-8 14-8 14s-8-7.14-8-14c0-4.42 3.58-8 8-8zm3 8c0-1.66-1.351-3-3-3-1.66 0-3 1.34-3 3s1.34 3 3 3c1.649 0 3-1.34 3-3z" fill="#94c1ff"/><path d="m8 44.5h4v3.98h-4z" fill="#fff"/><path d="m19 62.5h-18v-18h7v3.98h4v-3.98h7z" fill="#d7e9ff"/><g fill="#116fff"><path d="m19 63.5h-18c-.553 0-1-.447-1-1v-18c0-.553.447-1 1-1h18c.553 0 1 .447 1 1v18c0 .553-.447 1-1 1zm-17-2h16v-16h-16z"/><path d="m55 24.5c-.238 0-.477-.085-.666-.254-.341-.304-8.334-7.526-8.334-14.746 0-4.963 4.037-9 9-9s9 4.037 9 9c0 7.22-7.993 14.442-8.334 14.746-.189.169-.428.254-.666.254zm0-22c-3.859 0-7 3.141-7 7 0 5.21 5.134 10.77 6.999 12.617 1.865-1.849 7.001-7.417 7.001-12.617 0-3.859-3.141-7-7-7z"/><path d="m51.519 54.503h-27.522c-.553 0-1-.447-1-1s.447-1 1-1h27.521c.553 0 1 .447 1 1s-.447 1-.999 1z"/><path d="m51.519 39.499h-39.03c-.553 0-1-.447-1-1s.447-1 1-1h39.03c.553 0 1 .447 1 1s-.448 1-1 1z"/><path d="m48.001 24.5h-35.015c-.553 0-1-.447-1-1s.447-1 1-1h35.015c.553 0 1 .447 1 1s-.447 1-1 1z"/><path d="m51.519 54.503c-.553 0-1-.447-1-1s.447-1 1-1c3.585 0 6.502-2.917 6.502-6.502s-2.917-6.502-6.502-6.502c-.553 0-1-.447-1-1s.447-1 1-1c4.688 0 8.502 3.813 8.502 8.502s-3.814 8.502-8.502 8.502z"/><path d="m12.488 39.499c-4.688 0-8.502-3.813-8.502-8.502s3.813-8.502 8.502-8.502c.553 0 1 .447 1 1s-.447 1-1 1c-3.585 0-6.502 2.917-6.502 6.502s2.917 6.502 6.502 6.502c.553 0 1 .447 1 1s-.447 1-1 1z"/><path d="m54.994 13.5c-2.206 0-4-1.795-4-4.001 0-2.205 1.794-3.999 4-3.999s4 1.794 4 3.999c0 2.206-1.794 4.001-4 4.001zm0-6c-1.103 0-2 .896-2 1.999 0 1.104.897 2.001 2 2.001s2-.897 2-2.001c0-1.103-.897-1.999-2-1.999z"/><path d="m8 49.483c-.553 0-1-.447-1-1v-3.983c0-.553.447-1 1-1s1 .447 1 1v3.983c0 .553-.447 1-1 1z"/><path d="m12 49.483c-.553 0-1-.447-1-1v-3.983c0-.553.447-1 1-1s1 .447 1 1v3.983c0 .553-.447 1-1 1z"/><path d="m12 49.483h-4c-.553 0-1-.447-1-1s.447-1 1-1h4c.553 0 1 .447 1 1s-.447 1-1 1z"/><path d="m10 57.499h-6c-.553 0-1-.447-1-1s.447-1 1-1h6c.553 0 1 .447 1 1s-.447 1-1 1z"/><path d="m7 60.499h-3c-.553 0-1-.447-1-1s.447-1 1-1h3c.553 0 1 .447 1 1s-.447 1-1 1z"/></g></svg>