<svg height="512pt" viewBox="0 -16 512.112 512" width="512pt" xmlns="http://www.w3.org/2000/svg"><path d="m504.097656 248.054688v122.800781c0 17.601562-2.320312 44.320312-24 64l-32.082031 29.199219-1.359375-1.4375c5.757812-5.769532 9.359375-13.769532 9.359375-22.5625v-144l48-48zm0 0" fill="#94c1ff"/><path d="m504.097656 104.054688v144h-.082031l-48 48v-144l48-48zm0 0" fill="#5c9eff"/><path d="m504.015625 104.054688-48 48c0-17.597657-14.398437-32-32-32l48-48c17.601563 0 32 14.402343 32 32zm0 0" fill="#5c9eff"/><path d="m344.015625 72.054688h128l-48 48h-192l48-48zm0 0" fill="#5c9eff"/><path d="m456.015625 296.054688v144c0 8.800781-3.601563 16.800781-9.359375 22.5625-5.839844 5.832031-13.839844 9.4375-22.640625 9.4375h-192v-66.796876c5.832031 6.636719 14.398437 10.796876 24 10.796876 17.679687 0 32-14.320313 32-32 0-17.679688-14.320313-32-32-32-9.601563 0-18.167969 4.242187-24 10.882812v-66.882812h90.800781c-6.640625-5.839844-10.800781-14.398438-10.800781-24 0-17.679688 14.320313-32 32-32s32 14.320312 32 32c0 9.601562-4.238281 18.160156-10.878906 24zm0 0" fill="#d7e9ff"/><path d="m456.015625 152.054688v144h-90.878906c6.640625-5.839844 10.878906-14.398438 10.878906-24 0-17.679688-14.320313-32-32-32s-32 14.320312-32 32c0 9.601562 4.160156 18.160156 10.800781 24h-90.800781v-66.796876c-5.917969 6.636719-14.488281 10.796876-24 10.796876-17.679687 0-32-14.320313-32-32 0-17.679688 14.320313-32 32-32 9.511719 0 18.082031 4.242187 24 10.882812v-66.882812h192c17.601563 0 32 14.402343 32 32zm0 0" fill="#94c1ff"/><path d="m344.015625 24.054688v24h-176v-24c0-8.796876 7.121094-16 16-16h144c8.800781 0 16 7.203124 16 16zm0 0" fill="#94c1ff"/><path d="m256.015625 352.054688c17.679687 0 32 14.320312 32 32 0 17.679687-14.320313 32-32 32-9.601563 0-18.167969-4.160157-24-10.796876v66.796876h-192c-17.601563 0-32-14.398438-32-32v-144h90.800781c-6.640625 5.921874-10.800781 14.480468-10.800781 24 0 17.679687 14.320313 32 32 32s32-14.320313 32-32c0-9.519532-4.238281-18.160157-10.878906-24h90.878906v66.882812c5.839844-6.640625 14.398437-10.882812 24-10.882812zm0 0" fill="#94c1ff"/><path d="m168.015625 72.054688h112l-48 48h-192c-8.167969 0-15.601563 3.042968-21.28125 8.160156l29.28125-32.160156c19.679687-21.597657 46.398437-24 64-24zm0 0" fill="#94c1ff"/><path d="m232.015625 229.257812v66.796876h-90.878906c6.640625 5.839843 10.878906 14.480468 10.878906 24 0 17.679687-14.320313 32-32 32s-32-14.320313-32-32c0-9.519532 4.160156-18.078126 10.800781-24h-90.800781v-144c0-9.4375 4.160156-18 10.71875-23.839844 5.679687-5.117188 13.121094-8.160156 21.28125-8.160156h192v66.882812c-5.917969-6.640625-14.488281-10.882812-24-10.882812-17.679687 0-32 14.320312-32 32 0 17.679687 14.320313 32 32 32 9.519531 0 18.082031-4.160157 24-10.796876zm0 0" fill="#d7e9ff"/><path d="m168.015625 48.054688h32v48h-32zm0 0" fill="#d7e9ff"/><path d="m312.015625 48.054688h32v48h-32zm0 0" fill="#d7e9ff"/><g fill="#116fff"><path d="m424 480.054688h-384c-22.054688 0-40-17.941407-40-40v-288c0-22.054688 17.945312-40 40-40h384c22.054688 0 40 17.945312 40 40v288c0 22.058593-17.945312 40-40 40zm-384-352c-13.230469 0-24 10.769531-24 24v288c0 13.234374 10.769531 24 24 24h384c13.230469 0 24-10.765626 24-24v-288c0-13.230469-10.769531-24-24-24zm0 0"/><path d="m48 104.054688c-1.921875 0-3.847656-.6875-5.382812-2.085938-3.265626-2.96875-3.503907-8.03125-.527344-11.296875 21.703125-23.855469 50.292968-26.617187 69.910156-26.617187 4.425781 0 8 3.578124 8 8 0 4.425781-3.574219 8-8 8-16.585938 0-40.648438 2.21875-58.089844 21.386718-1.574218 1.734375-3.734375 2.613282-5.910156 2.613282zm0 0"/><path d="m504 112.054688c-4.425781 0-8-3.574219-8-8 0-13.230469-10.769531-24-24-24-4.425781 0-8-3.574219-8-8 0-4.421876 3.574219-8 8-8 22.054688 0 40 17.945312 40 40 0 4.425781-3.574219 8-8 8zm0 0"/><path d="m98.847656 304.054688h-90.847656c-4.425781 0-8-3.574219-8-8 0-4.421876 3.574219-8 8-8h90.839844c4.425781 0 8 3.578124 8 8 0 4.425781-3.574219 8-7.992188 8zm0 0"/><path d="m120 360.054688c-22.054688 0-40-17.941407-40-40 0-11.480469 4.9375-22.40625 13.550781-30 3.3125-2.917969 8.371094-2.613282 11.289063.714843 2.921875 3.308594 2.601562 8.367188-.710938 11.285157-5.167968 4.554687-8.136718 11.121093-8.136718 18 0 13.234374 10.769531 24 24 24 13.230468 0 24-10.765626 24-24 0-6.886719-2.960938-13.453126-8.136719-18.007813-3.3125-2.917969-3.632813-7.976563-.710938-11.285156 2.917969-3.320313 7.984375-3.632813 11.289063-.714844 8.613281 7.59375 13.550781 18.527344 13.550781 30.007813.015625 22.058593-17.929687 40-39.984375 40zm0 0"/><path d="m232 304.054688h-90.839844c-4.425781 0-8-3.574219-8-8 0-4.421876 3.574219-8 8-8h90.839844c4.425781 0 8 3.578124 8 8 0 4.425781-3.574219 8-8 8zm0 0"/><path d="m456 304.054688h-90.839844c-4.425781 0-8-3.574219-8-8 0-4.421876 3.574219-8 8-8h90.839844c4.425781 0 8 3.578124 8 8 0 4.425781-3.574219 8-8 8zm0 0"/><path d="m322.847656 304.0625c-1.878906 0-3.769531-.65625-5.289062-2-8.613282-7.589844-13.550782-18.527344-13.550782-30.007812 0-22.054688 17.945313-40 40-40 22.054688 0 40 17.945312 40 40 0 11.480468-4.9375 22.410156-13.550781 30-3.3125 2.921874-8.367187 2.617187-11.289062-.710938-2.921875-3.3125-2.601563-8.367188.710937-11.289062 5.167969-4.550782 8.136719-11.117188 8.136719-18 0-13.230469-10.769531-24-24-24s-24 10.769531-24 24c0 6.890624 2.960937 13.457031 8.136719 18.007812 3.3125 2.921875 3.632812 7.976562.710937 11.289062-1.597656 1.800782-3.808593 2.710938-6.015625 2.710938zm0 0"/><path d="m322.847656 304.054688h-90.847656c-4.425781 0-8-3.574219-8-8 0-4.421876 3.574219-8 8-8h90.839844c4.425781 0 8 3.578124 8 8 0 4.425781-3.574219 8-7.992188 8zm0 0"/><path d="m232 480.054688c-4.425781 0-8-3.574219-8-8v-66.839844c0-4.421875 3.574219-8 8-8s8 3.578125 8 8v66.839844c0 4.425781-3.574219 8-8 8zm0 0"/><path d="m256 424.054688c-11.464844 0-22.398438-4.933594-30-13.542969-2.921875-3.3125-2.609375-8.367188.703125-11.296875 3.3125-2.917969 8.359375-2.597656 11.296875.707031 4.558594 5.167969 11.128906 8.140625 18 8.140625 13.230469 0 24-10.765625 24-24 0-13.230469-10.769531-24-24-24-6.886719 0-13.449219 2.960938-17.992188 8.136719-2.929687 3.320312-7.984374 3.632812-11.296874.722656-3.3125-2.921875-3.632813-7.976563-.71875-11.296875 7.582031-8.625 18.527343-13.570312 30.007812-13.570312 22.054688 0 40 17.945312 40 40 0 22.058593-17.945312 40-40 40zm0 0"/><path d="m232 370.894531c-4.425781 0-8-3.574219-8-8v-66.839843c0-4.421876 3.574219-8 8-8s8 3.578124 8 8v66.839843c0 4.425781-3.574219 8-8 8zm0 0"/><path d="m232 194.894531c-4.425781 0-8-3.574219-8-8v-66.839843c0-4.421876 3.574219-8 8-8s8 3.578124 8 8v66.839843c0 4.425781-3.574219 8-8 8zm0 0"/><path d="m208 248.054688c-22.054688 0-40-17.941407-40-40 0-22.054688 17.945312-40 40-40 11.464844 0 22.398438 4.9375 30 13.546874 2.921875 3.308594 2.609375 8.367188-.703125 11.292969-3.304687 2.921875-8.359375 2.609375-11.296875-.703125-4.558594-5.167968-11.121094-8.136718-18-8.136718-13.230469 0-24 10.769531-24 24 0 13.234374 10.769531 24 24 24 6.886719 0 13.449219-2.957032 17.992188-8.132813 2.929687-3.328125 7.984374-3.632813 11.296874-.722656 3.3125 2.921875 3.632813 7.976562.71875 11.296875-7.582031 8.617187-18.519531 13.558594-30.007812 13.558594zm0 0"/><path d="m232 304.054688c-4.425781 0-8-3.574219-8-8v-66.839844c0-4.421875 3.574219-8 8-8s8 3.578125 8 8v66.839844c0 4.425781-3.574219 8-8 8zm0 0"/><path d="m168 104.054688c-4.425781 0-8-3.574219-8-8v-72c0-4.421876 3.574219-8 8-8s8 3.578124 8 8v72c0 4.425781-3.574219 8-8 8zm0 0"/><path d="m168 32.054688c-4.425781 0-8-3.574219-8-8 0-13.230469 10.769531-24.0000005 24-24.0000005 4.425781 0 8 3.5781245 8 8.0000005 0 4.425781-3.574219 8-8 8-4.414062 0-8 3.585937-8 8 0 4.425781-3.574219 8-8 8zm0 0"/><path d="m344 104.054688c-4.425781 0-8-3.574219-8-8v-72c0-4.421876 3.574219-8 8-8s8 3.578124 8 8v72c0 4.425781-3.574219 8-8 8zm0 0"/><path d="m344 32.054688c-4.425781 0-8-3.574219-8-8 0-4.414063-3.585938-8-8-8-4.425781 0-8-3.574219-8-8 0-4.421876 3.574219-8.0000005 8-8.0000005 13.230469 0 24 10.7695315 24 24.0000005 0 4.425781-3.574219 8-8 8zm0 0"/><path d="m328 16.054688h-144c-4.425781 0-8-3.574219-8-8 0-4.421876 3.574219-8.0000005 8-8.0000005h144c4.425781 0 8 3.5781245 8 8.0000005 0 4.425781-3.574219 8-8 8zm0 0"/><path d="m344 56.054688h-176c-4.425781 0-8-3.574219-8-8 0-4.421876 3.574219-8 8-8h176c4.425781 0 8 3.578124 8 8 0 4.425781-3.574219 8-8 8zm0 0"/><path d="m200 104.054688c-4.425781 0-8-3.574219-8-8v-48c0-4.421876 3.574219-8 8-8s8 3.578124 8 8v48c0 4.425781-3.574219 8-8 8zm0 0"/><path d="m312 104.054688c-4.425781 0-8-3.574219-8-8v-48c0-4.421876 3.574219-8 8-8s8 3.578124 8 8v48c0 4.425781-3.574219 8-8 8zm0 0"/><path d="m18.785156 136.167969c-1.921875 0-3.847656-.6875-5.386718-2.089844-3.261719-2.964844-3.503907-8.03125-.527344-11.292969l29.21875-32.113281c2.972656-3.273437 8.039062-3.503906 11.292968-.527344 3.265626 2.96875 3.503907 8.03125.527344 11.296875l-29.214844 32.109375c-1.574218 1.730469-3.742187 2.617188-5.910156 2.617188zm0 0"/><path d="m480.113281 442.839844c-2.167969 0-4.335937-.878906-5.914062-2.617188-2.976563-3.261718-2.734375-8.328125.527343-11.292968 19.167969-17.441407 21.386719-41.503907 21.386719-58.089844v-266.785156c0-4.421876 3.574219-8 8-8 4.421875 0 8 3.578124 8 8v266.785156c0 19.617187-2.761719 48.207031-26.617187 69.914062-1.535156 1.398438-3.464844 2.085938-5.382813 2.085938zm0 0"/><path d="m448 472.054688c-2.167969 0-4.335938-.878907-5.910156-2.613282-2.976563-3.265625-2.738282-8.328125.527344-11.296875l32.109374-29.214843c3.265626-2.976563 8.328126-2.738282 11.296876.527343 2.976562 3.261719 2.738281 8.328125-.527344 11.296875l-32.113282 29.214844c-1.527343 1.398438-3.460937 2.085938-5.382812 2.085938zm0 0"/><path d="m424 128.054688c-2.046875 0-4.097656-.78125-5.65625-2.34375-3.128906-3.125-3.128906-8.183594 0-11.3125l48-48c3.128906-3.125 8.183594-3.125 11.3125 0 3.128906 3.128906 3.128906 8.1875 0 11.3125l-48 48c-1.558594 1.5625-3.609375 2.34375-5.65625 2.34375zm0 0"/><path d="m456 160.054688c-2.046875 0-4.097656-.78125-5.65625-2.34375-3.128906-3.125-3.128906-8.183594 0-11.3125l48-48c3.128906-3.125 8.183594-3.125 11.3125 0 3.128906 3.128906 3.128906 8.1875 0 11.3125l-48 48c-1.558594 1.5625-3.609375 2.34375-5.65625 2.34375zm0 0"/><path d="m456 304.054688c-2.046875 0-4.097656-.78125-5.65625-2.34375-3.128906-3.125-3.128906-8.183594 0-11.3125l48-48c3.128906-3.125 8.183594-3.125 11.3125 0 3.128906 3.128906 3.128906 8.1875 0 11.3125l-48 48c-1.558594 1.5625-3.609375 2.34375-5.65625 2.34375zm0 0"/><path d="m168 80.054688h-56c-4.425781 0-8-3.574219-8-8 0-4.421876 3.574219-8 8-8h56c4.425781 0 8 3.578124 8 8 0 4.425781-3.574219 8-8 8zm0 0"/><path d="m312 80.054688h-112c-4.425781 0-8-3.574219-8-8 0-4.421876 3.574219-8 8-8h112c4.425781 0 8 3.578124 8 8 0 4.425781-3.574219 8-8 8zm0 0"/><path d="m472 80.054688h-128c-4.425781 0-8-3.574219-8-8 0-4.421876 3.574219-8 8-8h128c4.425781 0 8 3.578124 8 8 0 4.425781-3.574219 8-8 8zm0 0"/><path d="m232 128.054688c-2.046875 0-4.097656-.78125-5.65625-2.34375-3.128906-3.125-3.128906-8.183594 0-11.3125l48-48c3.128906-3.125 8.183594-3.125 11.3125 0 3.128906 3.128906 3.128906 8.1875 0 11.3125l-48 48c-1.558594 1.5625-3.609375 2.34375-5.65625 2.34375zm0 0"/></g></svg>