<svg height="512pt" viewBox="0 -88 512.00275 512" width="512pt" xmlns="http://www.w3.org/2000/svg"><path d="m344.003906 232.019531h32v32h-32zm0 0" fill="#d7e9ff"/><path d="m312.003906 264.019531h32v32h-32zm0 0" fill="#d7e9ff"/><path d="m344.003906 264.019531h32v32h-32zm0 0" fill="#d7e9ff"/><path d="m344.003906 296.019531h32v32h-32zm0 0" fill="#d7e9ff"/><path d="m312.003906 296.019531h32v32h-32zm0 0" fill="#d7e9ff"/><path d="m312.003906 296.019531v32h-32v-32zm0 0" fill="#d7e9ff"/><path d="m136.003906 296.019531h32v32h-32zm0 0" fill="#d7e9ff"/><path d="m136.003906 264.019531h32v32h-32zm0 0" fill="#d7e9ff"/><path d="m136.003906 232.019531h32v32h-32zm0 0" fill="#d7e9ff"/><path d="m168.003906 264.019531h32v32h-32zm0 0" fill="#d7e9ff"/><path d="m232.003906 296.019531v32h-32v-32zm0 0" fill="#d7e9ff"/><path d="m168.003906 296.019531h32v32h-32zm0 0" fill="#d7e9ff"/><path d="m136.003906 176.019531h240v24h-240zm0 0" fill="#d7e9ff"/><path d="m376.003906 200.019531v32h-32v32h-32v32h-32v32h-48v-32h-32v-32h-32v-32h-32v-32zm0 0" fill="#94c1ff"/><path d="m256.003906 8.019531 248 64.078125v23.921875l-24-6.167969-224-57.914062-224 57.914062-24 6.167969v-23.921875zm0 0" fill="#d7e9ff"/><path d="m256.003906 96.019531h80v32h-80zm0 0" fill="#94c1ff"/><path d="m176.003906 96.019531h80v32h-80zm0 0" fill="#94c1ff"/><path d="m256.003906 31.9375 224 57.914062v238.167969h-104v-152h-240v152h-104v-238.167969zm80 96.082031v-32h-160v32zm0 0" fill="#fff"/><g fill="#116fff"><path d="m504.003906 336.035156h-496c-4.425781 0-7.99999975-3.574218-7.99999975-8 0-4.421875 3.57421875-8 7.99999975-8h496c4.421875 0 8 3.578125 8 8 0 4.425782-3.578125 8-8 8zm0 0"/><path d="m32.011719 336.035156c-4.425781 0-8-3.574218-8-8v-238.199218c0-4.425782 3.574219-8 8-8 4.421875 0 8 3.574218 8 8v238.199218c0 4.425782-3.578125 8-8 8zm0 0"/><path d="m480.003906 336.035156c-4.425781 0-8-3.574218-8-8v-238.199218c0-4.425782 3.574219-8 8-8 4.421875 0 8 3.574218 8 8v238.199218c0 4.425782-3.578125 8-8 8zm0 0"/><path d="m504.011719 104.035156c-.664063 0-1.335938-.078125-2.007813-.253906l-246-63.554688-246 63.554688c-4.273437 1.15625-8.632812-1.464844-9.746094-5.746094-1.109374-4.273437 1.464844-8.640625 5.746094-9.742187l248-64.074219c1.3125-.34375 2.6875-.34375 4 0l248 64.074219c4.277344 1.101562 6.847656 5.46875 5.742188 9.742187-.925782 3.609375-4.183594 6-7.734375 6zm0 0"/><path d="m504.011719 80.074219c-.664063 0-1.335938-.078125-2.007813-.253907l-246-63.554687-246 63.554687c-4.273437 1.144532-8.632812-1.464843-9.746094-5.746093-1.109374-4.269531 1.464844-8.640625 5.746094-9.742188l248-64.074219c1.3125-.3437495 2.6875-.3437495 4 0l248 64.074219c4.277344 1.101563 6.847656 5.472657 5.742188 9.742188-.925782 3.609375-4.183594 6-7.734375 6zm0 0"/><path d="m8.003906 104.035156c-4.425781 0-7.99999975-3.574218-7.99999975-8v-23.960937c0-4.421875 3.57421875-8 7.99999975-8 4.421875 0 8 3.578125 8 8v23.960937c0 4.425782-3.578125 8-8 8zm0 0"/><path d="m504.003906 104.035156c-4.425781 0-8-3.574218-8-8v-23.960937c0-4.421875 3.574219-8 8-8 4.421875 0 8 3.578125 8 8v23.960937c0 4.425782-3.578125 8-8 8zm0 0"/><path d="m336.003906 136.050781h-160c-4.425781 0-8-3.574219-8-8v-32.007812c0-4.421875 3.574219-8 8-8h160c4.421875 0 8 3.578125 8 8v32.007812c0 4.425781-3.578125 8-8 8zm-152-16h144v-16.007812h-144zm0 0"/><path d="m256.003906 136.050781c-4.425781 0-8-3.574219-8-8v-32.007812c0-4.421875 3.574219-8 8-8 4.421875 0 8 3.578125 8 8v32.007812c0 4.425781-3.578125 8-8 8zm0 0"/><path d="m376.003906 336.035156c-4.425781 0-8-3.574218-8-8v-144h-224.015625v144c0 4.425782-3.578125 8-8 8-4.425781 0-8-3.574218-8-8v-152c0-4.421875 3.574219-8 8-8h240.015625c4.421875 0 8 3.578125 8 8v152c0 4.425782-3.578125 8-8 8zm0 0"/><path d="m376.003906 208.035156h-240.015625c-4.425781 0-8-3.574218-8-8 0-4.421875 3.574219-8 8-8h240.015625c4.421875 0 8 3.578125 8 8 0 4.425782-3.578125 8-8 8zm0 0"/><path d="m231.25 304.042969h-95.261719c-4.425781 0-8-3.574219-8-8 0-4.421875 3.574219-8 8-8h95.261719c4.425781 0 8 3.578125 8 8 0 4.425781-3.574219 8-8 8zm0 0"/><path d="m168.003906 336.035156c-4.425781 0-8-3.574218-8-8v-96.007812c0-4.425782 3.574219-8 8-8 4.421875 0 8 3.574218 8 8v96.007812c0 4.425782-3.578125 8-8 8zm0 0"/><path d="m200.003906 336.035156c-4.425781 0-8-3.574218-8-8v-64c0-4.421875 3.574219-8 8-8 4.421875 0 8 3.578125 8 8v64c0 4.425782-3.578125 8-8 8zm0 0"/><path d="m232.003906 336.035156c-4.425781 0-8-3.574218-8-8v-31.992187c0-4.421875 3.574219-8 8-8 4.421875 0 8 3.578125 8 8v31.992187c0 4.425782-3.578125 8-8 8zm0 0"/><path d="m200.003906 272.035156h-64.015625c-4.425781 0-8-3.574218-8-8 0-4.421875 3.574219-8 8-8h64.015625c4.421875 0 8 3.578125 8 8 0 4.425782-3.578125 8-8 8zm0 0"/><path d="m168.003906 240.027344h-32.015625c-4.425781 0-8-3.574219-8-8 0-4.425782 3.574219-8 8-8h32.015625c4.421875 0 8 3.574218 8 8 0 4.425781-3.578125 8-8 8zm0 0"/><path d="m376.027344 304.042969h-95.265625c-4.421875 0-8-3.574219-8-8 0-4.421875 3.578125-8 8-8h95.265625c4.421875 0 8 3.578125 8 8 0 4.425781-3.578125 8-8 8zm0 0"/><path d="m344.011719 336.035156c-4.425781 0-8-3.574218-8-8v-96.007812c0-4.425782 3.574219-8 8-8 4.421875 0 8 3.574218 8 8v96.007812c0 4.425782-3.578125 8-8 8zm0 0"/><path d="m312.011719 336.035156c-4.425781 0-8-3.574218-8-8v-64c0-4.421875 3.574219-8 8-8 4.421875 0 8 3.578125 8 8v64c0 4.425782-3.578125 8-8 8zm0 0"/><path d="m280.011719 336.035156c-4.425781 0-8-3.574218-8-8v-31.992187c0-4.421875 3.574219-8 8-8 4.421875 0 8 3.578125 8 8v31.992187c0 4.425782-3.578125 8-8 8zm0 0"/><path d="m376.027344 272.035156h-64.015625c-4.425781 0-8-3.574218-8-8 0-4.421875 3.574219-8 8-8h64.015625c4.421875 0 8 3.578125 8 8 0 4.425782-3.578125 8-8 8zm0 0"/><path d="m376.027344 240.027344h-32.015625c-4.425781 0-8-3.574219-8-8 0-4.425782 3.574219-8 8-8h32.015625c4.421875 0 8 3.574218 8 8 0 4.425781-3.578125 8-8 8zm0 0"/></g></svg>