<!DOCTYPE svg PUBLIC "-//W3C//DTD SVG 1.1//EN" "http://www.w3.org/Graphics/SVG/1.1/DTD/svg11.dtd">
<!-- Uploaded to: SVG Repo, www.svgrepo.com, Transformed by: SVG Repo Mixer Tools -->
<svg height="800px" width="800px" version="1.1" id="Layer_1" xmlns="http://www.w3.org/2000/svg" xmlns:xlink="http://www.w3.org/1999/xlink" viewBox="0 0 512 512" xml:space="preserve" fill="#000000">
<g id="SVGRepo_bgCarrier" stroke-width="0"/>
<g id="SVGRepo_tracerCarrier" stroke-linecap="round" stroke-linejoin="round"/>
<g id="SVGRepo_iconCarrier"> <g> <path style="fill:#C69666;" d="M326.621,141.241H255.25l0.75-8.828H150.069v8.828H79.448c-19.5,0-35.31,15.81-35.31,35.31v282.483 h317.793V176.552C361.931,157.052,346.121,141.241,326.621,141.241"/> <path style="fill:#B1D3F0;" d="M512,70.621C512,31.62,480.38,0,441.379,0s-70.621,31.62-70.621,70.621s31.1,70.621,70.1,70.621 C479.868,141.241,512,109.621,512,70.621"/> <path style="fill:#556080;" d="M467.862,459.034V136.06c-8.183,3.319-17.108,5.182-26.483,5.182s-18.3-1.863-26.483-5.182v322.975 H0v13.4C0,494.283,13.462,512,35.31,512H476.69c21.848,0,35.31-17.717,35.31-39.565v-13.4H467.862z"/> <path style="fill:#EE8472;" d="M467.862,105.931c-2.26,0-4.52-0.865-6.241-2.586l-26.483-26.483c-3.452-3.452-3.452-9.031,0-12.482 c3.452-3.452,9.031-3.452,12.482,0l26.483,26.483c3.452,3.452,3.452,9.031,0,12.482 C472.382,105.066,470.122,105.931,467.862,105.931"/> <g> <path style="fill:#E8D5B2;" d="M247.409,245.261l-44.138-33.395l-44.138,33.395c-2.851,3.558-9.066,1.545-9.066-3.01V132.418 h105.931v109.833C255.998,246.806,250.26,248.819,247.409,245.261"/> <polygon style="fill:#E8D5B2;" points="79.448,423.724 158.897,423.724 158.897,379.586 79.448,379.586 "/> </g> </g> </g>
</svg>